<svg xmlns="http://www.w3.org/2000/svg" width="1920" height="880" viewBox="0 0 1920 880">
  <defs>
    <style>text{font-family:Arial,Helvetica,sans-serif}</style>
    <marker id="arrow" viewBox="0 0 10 10" refX="8" refY="5" markerWidth="7" markerHeight="7" orient="auto">
      <path d="M0 0L10 5L0 10z" fill="#595959"/>
    </marker>
  </defs>
  <rect width="1920" height="880" fill="#ffffff"/>
  <rect x="65" y="28" width="235" height="40" rx="20" fill="#f2f2f2" stroke="#8c8c8c" stroke-width="2" stroke-dasharray="7 5"/>
  <text x="182" y="54" font-size="17" font-weight="700" fill="#595959" text-anchor="middle">FUTURE DIRECTION</text>

  <rect x="55" y="95" width="865" height="735" rx="8" fill="#ffffff" stroke="#8c8c8c" stroke-width="2"/>
  <rect x="55" y="95" width="865" height="58" rx="8" fill="#f8cecc" stroke="#b85450" stroke-width="2"/>
  <rect x="55" y="143" width="865" height="10" fill="#f8cecc"/>
  <text x="487" y="132" font-size="22" font-weight="700" fill="#7f2f2b" text-anchor="middle">GPU Node - Hard Eviction</text>

  <rect x="100" y="175" width="240" height="62" rx="5" fill="#d5e8d4" stroke="#82b366" stroke-width="2"/>
  <text x="220" y="201" font-size="16" font-weight="700" fill="#345c2b" text-anchor="middle">Serving burst</text>
  <text x="220" y="224" font-size="14" fill="#404040" text-anchor="middle">requests 4 GPUs now</text>
  <g fill="#ffffff" stroke="#82b366" stroke-width="1.3">
    <rect x="365" y="183" width="46" height="46"/><rect x="423" y="183" width="46" height="46"/>
    <rect x="481" y="183" width="46" height="46"/><rect x="539" y="183" width="46" height="46"/>
  </g>
  <text x="388" y="211" font-size="12" fill="#345c2b" text-anchor="middle">S0</text><text x="446" y="211" font-size="12" fill="#345c2b" text-anchor="middle">S1</text>
  <text x="504" y="211" font-size="12" fill="#345c2b" text-anchor="middle">S2</text><text x="562" y="211" font-size="12" fill="#345c2b" text-anchor="middle">S3</text>

  <rect x="90" y="265" width="795" height="335" rx="6" fill="#f7faff" stroke="#6c8ebf" stroke-width="2"/>
  <text x="120" y="297" font-size="17" font-weight="700" fill="#28527d">8-GPU worker node</text>
  <text x="855" y="297" font-size="14" fill="#666666" text-anchor="end">same physical GPU slots</text>
  <text x="120" y="335" font-size="14" font-weight="700" fill="#595959">TRAINING OWNERSHIP BEFORE BURST</text>
  <g fill="#dae8fc" stroke="#6c8ebf" stroke-width="1.5">
    <rect x="120" y="350" width="82" height="64"/><rect x="214" y="350" width="82" height="64"/><rect x="308" y="350" width="82" height="64"/><rect x="402" y="350" width="82" height="64"/>
    <rect x="496" y="350" width="82" height="64"/><rect x="590" y="350" width="82" height="64"/><rect x="684" y="350" width="82" height="64"/><rect x="778" y="350" width="82" height="64"/>
  </g>
  <g font-size="13" fill="#28527d" text-anchor="middle">
    <text x="161" y="376">GPU 0</text><text x="161" y="397">Rank 0</text><text x="255" y="376">GPU 1</text><text x="255" y="397">Rank 1</text>
    <text x="349" y="376">GPU 2</text><text x="349" y="397">Rank 2</text><text x="443" y="376">GPU 3</text><text x="443" y="397">Rank 3</text>
    <text x="537" y="376">GPU 4</text><text x="537" y="397">Rank 4</text><text x="631" y="376">GPU 5</text><text x="631" y="397">Rank 5</text>
    <text x="725" y="376">GPU 6</text><text x="725" y="397">Rank 6</text><text x="819" y="376">GPU 7</text><text x="819" y="397">Rank 7</text>
  </g>
  <path d="M161 425H457M518 425H819" fill="none" stroke="#b85450" stroke-width="4"/>
  <path d="M472 416L503 435M503 416L472 435" stroke="#b85450" stroke-width="4"/>
  <text x="120" y="466" font-size="14" font-weight="700" fill="#595959">AFTER IMMEDIATE RECLAIM</text>
  <g stroke-width="1.5">
    <rect x="120" y="482" width="82" height="78" fill="#f2f2f2" stroke="#8c8c8c"/><rect x="214" y="482" width="82" height="78" fill="#f2f2f2" stroke="#8c8c8c"/>
    <rect x="308" y="482" width="82" height="78" fill="#f2f2f2" stroke="#8c8c8c"/><rect x="402" y="482" width="82" height="78" fill="#f2f2f2" stroke="#8c8c8c"/>
    <rect x="496" y="482" width="82" height="78" fill="#d5e8d4" stroke="#82b366"/><rect x="590" y="482" width="82" height="78" fill="#d5e8d4" stroke="#82b366"/>
    <rect x="684" y="482" width="82" height="78" fill="#d5e8d4" stroke="#82b366"/><rect x="778" y="482" width="82" height="78" fill="#d5e8d4" stroke="#82b366"/>
  </g>
  <g font-size="13" text-anchor="middle">
    <text x="161" y="512" fill="#666666">GPU 0</text><text x="161" y="538" fill="#666666">rank stopped</text>
    <text x="255" y="512" fill="#666666">GPU 1</text><text x="255" y="538" fill="#666666">rank stopped</text>
    <text x="349" y="512" fill="#666666">GPU 2</text><text x="349" y="538" fill="#666666">rank stopped</text>
    <text x="443" y="512" fill="#666666">GPU 3</text><text x="443" y="538" fill="#666666">rank stopped</text>
    <text x="537" y="512" fill="#345c2b">GPU 4</text><text x="537" y="538" fill="#345c2b">Serving S0</text>
    <text x="631" y="512" fill="#345c2b">GPU 5</text><text x="631" y="538" fill="#345c2b">Serving S1</text>
    <text x="725" y="512" fill="#345c2b">GPU 6</text><text x="725" y="538" fill="#345c2b">Serving S2</text>
    <text x="819" y="512" fill="#345c2b">GPU 7</text><text x="819" y="538" fill="#345c2b">Serving S3</text>
  </g>

  <path d="M205 645H285V735H205zM265 645V665H285" fill="#ffffff" stroke="#b85450" stroke-width="2"/>
  <path d="M192 638L298 744M298 638L192 744" stroke="#b85450" stroke-width="5"/>
  <text x="350" y="666" font-size="17" font-weight="700" fill="#7f2f2b">In-memory training state is lost</text>
  <text x="350" y="700" font-size="15" fill="#595959">The distributed job cannot continue with missing ranks.</text>
  <rect x="350" y="723" width="300" height="52" rx="4" fill="#f8cecc" stroke="#b85450" stroke-width="2"/>
  <text x="500" y="756" font-size="17" font-weight="700" fill="#7f2f2b" text-anchor="middle">Progress Lost - Job Restarts</text>

  <rect x="1000" y="95" width="865" height="735" rx="8" fill="#ffffff" stroke="#8c8c8c" stroke-width="2"/>
  <rect x="1000" y="95" width="865" height="58" rx="8" fill="#d5e8d4" stroke="#82b366" stroke-width="2"/>
  <rect x="1000" y="143" width="865" height="10" fill="#d5e8d4"/>
  <text x="1432" y="132" font-size="22" font-weight="700" fill="#345c2b" text-anchor="middle">GPU Node - Recoverable Handover</text>

  <rect x="1045" y="175" width="240" height="62" rx="5" fill="#d5e8d4" stroke="#82b366" stroke-width="2"/>
  <text x="1165" y="201" font-size="16" font-weight="700" fill="#345c2b" text-anchor="middle">Same serving burst</text>
  <text x="1165" y="224" font-size="14" fill="#404040" text-anchor="middle">requests 4 GPUs now</text>
  <g fill="#ffffff" stroke="#82b366" stroke-width="1.3">
    <rect x="1310" y="183" width="46" height="46"/><rect x="1368" y="183" width="46" height="46"/>
    <rect x="1426" y="183" width="46" height="46"/><rect x="1484" y="183" width="46" height="46"/>
  </g>
  <text x="1333" y="211" font-size="12" fill="#345c2b" text-anchor="middle">S0</text><text x="1391" y="211" font-size="12" fill="#345c2b" text-anchor="middle">S1</text>
  <text x="1449" y="211" font-size="12" fill="#345c2b" text-anchor="middle">S2</text><text x="1507" y="211" font-size="12" fill="#345c2b" text-anchor="middle">S3</text>

  <rect x="1035" y="265" width="795" height="335" rx="6" fill="#f7faff" stroke="#6c8ebf" stroke-width="2"/>
  <text x="1065" y="297" font-size="17" font-weight="700" fill="#28527d">8-GPU worker node</text>
  <text x="1800" y="297" font-size="14" fill="#666666" text-anchor="end">same physical GPU slots</text>
  <text x="1065" y="335" font-size="14" font-weight="700" fill="#595959">TRAINING OWNERSHIP BEFORE BURST</text>
  <g fill="#dae8fc" stroke="#6c8ebf" stroke-width="1.5">
    <rect x="1065" y="350" width="82" height="64"/><rect x="1159" y="350" width="82" height="64"/><rect x="1253" y="350" width="82" height="64"/><rect x="1347" y="350" width="82" height="64"/>
    <rect x="1441" y="350" width="82" height="64"/><rect x="1535" y="350" width="82" height="64"/><rect x="1629" y="350" width="82" height="64"/><rect x="1723" y="350" width="82" height="64"/>
  </g>
  <g font-size="13" fill="#28527d" text-anchor="middle">
    <text x="1106" y="376">GPU 0</text><text x="1106" y="397">Rank 0</text><text x="1200" y="376">GPU 1</text><text x="1200" y="397">Rank 1</text>
    <text x="1294" y="376">GPU 2</text><text x="1294" y="397">Rank 2</text><text x="1388" y="376">GPU 3</text><text x="1388" y="397">Rank 3</text>
    <text x="1482" y="376">GPU 4</text><text x="1482" y="397">Rank 4</text><text x="1576" y="376">GPU 5</text><text x="1576" y="397">Rank 5</text>
    <text x="1670" y="376">GPU 6</text><text x="1670" y="397">Rank 6</text><text x="1764" y="376">GPU 7</text><text x="1764" y="397">Rank 7</text>
  </g>
  <path d="M1106 425H1764" fill="none" stroke="#6c8ebf" stroke-width="4"/>
  <text x="1065" y="466" font-size="14" font-weight="700" fill="#595959">AFTER CHECKPOINTED HANDOVER</text>
  <g stroke-width="1.5">
    <rect x="1065" y="482" width="82" height="78" fill="#f2f2f2" stroke="#8c8c8c"/><rect x="1159" y="482" width="82" height="78" fill="#f2f2f2" stroke="#8c8c8c"/>
    <rect x="1253" y="482" width="82" height="78" fill="#f2f2f2" stroke="#8c8c8c"/><rect x="1347" y="482" width="82" height="78" fill="#f2f2f2" stroke="#8c8c8c"/>
    <rect x="1441" y="482" width="82" height="78" fill="#d5e8d4" stroke="#82b366"/><rect x="1535" y="482" width="82" height="78" fill="#d5e8d4" stroke="#82b366"/>
    <rect x="1629" y="482" width="82" height="78" fill="#d5e8d4" stroke="#82b366"/><rect x="1723" y="482" width="82" height="78" fill="#d5e8d4" stroke="#82b366"/>
  </g>
  <g font-size="13" text-anchor="middle">
    <text x="1106" y="512" fill="#666666">GPU 0</text><text x="1106" y="538" fill="#666666">rank paused</text>
    <text x="1200" y="512" fill="#666666">GPU 1</text><text x="1200" y="538" fill="#666666">rank paused</text>
    <text x="1294" y="512" fill="#666666">GPU 2</text><text x="1294" y="538" fill="#666666">rank paused</text>
    <text x="1388" y="512" fill="#666666">GPU 3</text><text x="1388" y="538" fill="#666666">rank paused</text>
    <text x="1482" y="512" fill="#345c2b">GPU 4</text><text x="1482" y="538" fill="#345c2b">Serving S0</text>
    <text x="1576" y="512" fill="#345c2b">GPU 5</text><text x="1576" y="538" fill="#345c2b">Serving S1</text>
    <text x="1670" y="512" fill="#345c2b">GPU 6</text><text x="1670" y="538" fill="#345c2b">Serving S2</text>
    <text x="1764" y="512" fill="#345c2b">GPU 7</text><text x="1764" y="538" fill="#345c2b">Serving S3</text>
  </g>

  <path d="M1110 650C1110 630 1230 630 1230 650V720C1230 740 1110 740 1110 720z" fill="#dae8fc" stroke="#6c8ebf" stroke-width="2"/>
  <ellipse cx="1170" cy="650" rx="60" ry="20" fill="#f7faff" stroke="#6c8ebf" stroke-width="2"/>
  <path d="M1110 685C1110 705 1230 705 1230 685" fill="none" stroke="#6c8ebf" stroke-width="1.5"/>
  <text x="1170" y="675" font-size="15" font-weight="700" fill="#28527d" text-anchor="middle">Checkpoint</text>
  <text x="1170" y="696" font-size="14" fill="#28527d" text-anchor="middle">Storage</text>
  <path d="M1230 685H1300" fill="none" stroke="#6c8ebf" stroke-width="2" marker-end="url(#arrow)"/>
  <rect x="1300" y="645" width="500" height="100" rx="5" fill="#f7faff" stroke="#6c8ebf" stroke-width="2" stroke-dasharray="7 5"/>
  <text x="1550" y="674" font-size="15" font-weight="700" fill="#28527d" text-anchor="middle">Saved SubGroup B state</text>
  <g fill="#ffffff" stroke="#6c8ebf" stroke-width="1.5">
    <rect x="1350" y="691" width="70" height="36"/><rect x="1435" y="691" width="70" height="36"/><rect x="1520" y="691" width="70" height="36"/><rect x="1605" y="691" width="70" height="36"/>
  </g>
  <g font-size="12" fill="#28527d" text-anchor="middle">
    <text x="1385" y="714">Rank 4</text><text x="1470" y="714">Rank 5</text><text x="1555" y="714">Rank 6</text><text x="1640" y="714">Rank 7</text>
  </g>
  <text x="1755" y="705" font-size="15" font-weight="700" fill="#345c2b" text-anchor="middle">ready to restore</text>
  <rect x="1300" y="765" width="500" height="42" rx="4" fill="#d5e8d4" stroke="#82b366" stroke-width="2"/>
  <text x="1550" y="792" font-size="17" font-weight="700" fill="#345c2b" text-anchor="middle">State Preserved - Ready to Resume</text>
</svg>
